<mxfile host="app.diagrams.net" modified="2023-11-27T01:39:51.019Z" agent="Mozilla/5.0 (X11; Ubuntu; Linux x86_64; rv:120.0) Gecko/20100101 Firefox/120.0" etag="hkTq3fVaZaaAIuaTpJOp" version="21.7.2" type="device">
  <diagram name="Page-1" id="eN8NnHsFdDPB_zb2AlIf">
    <mxGraphModel dx="2784" dy="1897" grid="1" gridSize="10" guides="1" tooltips="1" connect="1" arrows="1" fold="1" page="1" pageScale="1" pageWidth="850" pageHeight="1100" math="0" shadow="0">
      <root>
        <mxCell id="0" />
        <mxCell id="1" parent="0" />
        <mxCell id="jOW5zVb-UwvocSorwN48-239" value="" style="rounded=0;whiteSpace=wrap;html=1;fillColor=#D5E8D4;" vertex="1" parent="1">
          <mxGeometry x="-500" y="-640" width="560" height="270" as="geometry" />
        </mxCell>
        <mxCell id="jOW5zVb-UwvocSorwN48-42" value="" style="group" vertex="1" connectable="0" parent="1">
          <mxGeometry x="-270" y="-620" width="160" height="200" as="geometry" />
        </mxCell>
        <mxCell id="jOW5zVb-UwvocSorwN48-36" value="" style="rounded=0;whiteSpace=wrap;html=1;" vertex="1" parent="jOW5zVb-UwvocSorwN48-42">
          <mxGeometry width="160" height="200" as="geometry" />
        </mxCell>
        <mxCell id="jOW5zVb-UwvocSorwN48-31" value="&lt;h2&gt;Logic Files&lt;/h2&gt;" style="rounded=0;whiteSpace=wrap;html=1;" vertex="1" parent="jOW5zVb-UwvocSorwN48-42">
          <mxGeometry x="20" y="70" width="120" height="30" as="geometry" />
        </mxCell>
        <mxCell id="jOW5zVb-UwvocSorwN48-32" value="&lt;h2&gt;Token Defs&lt;br&gt;&lt;/h2&gt;" style="rounded=0;whiteSpace=wrap;html=1;" vertex="1" parent="jOW5zVb-UwvocSorwN48-42">
          <mxGeometry x="20" y="110" width="120" height="30" as="geometry" />
        </mxCell>
        <mxCell id="jOW5zVb-UwvocSorwN48-33" value="&lt;h2&gt;Location List&lt;br&gt;&lt;/h2&gt;" style="rounded=0;whiteSpace=wrap;html=1;" vertex="1" parent="jOW5zVb-UwvocSorwN48-42">
          <mxGeometry x="20" y="150" width="120" height="30" as="geometry" />
        </mxCell>
        <mxCell id="jOW5zVb-UwvocSorwN48-37" value="&lt;h1&gt;ZOOTR Inputs&lt;/h1&gt;" style="text;html=1;strokeColor=none;fillColor=none;align=center;verticalAlign=middle;whiteSpace=wrap;rounded=0;" vertex="1" parent="jOW5zVb-UwvocSorwN48-42">
          <mxGeometry x="50" y="20" width="60" height="30" as="geometry" />
        </mxCell>
        <mxCell id="jOW5zVb-UwvocSorwN48-38" style="edgeStyle=orthogonalEdgeStyle;rounded=0;orthogonalLoop=1;jettySize=auto;html=1;exitX=0.5;exitY=1;exitDx=0;exitDy=0;" edge="1" parent="jOW5zVb-UwvocSorwN48-42" source="jOW5zVb-UwvocSorwN48-36" target="jOW5zVb-UwvocSorwN48-36">
          <mxGeometry relative="1" as="geometry" />
        </mxCell>
        <mxCell id="jOW5zVb-UwvocSorwN48-240" value="&lt;h1&gt;Front End&lt;/h1&gt;&lt;div&gt;Bootstraps the entity graph and launches an application on top of it.&lt;br&gt;&lt;/div&gt;" style="text;html=1;strokeColor=none;fillColor=none;spacing=5;spacingTop=-20;whiteSpace=wrap;overflow=hidden;rounded=0;" vertex="1" parent="1">
          <mxGeometry x="-490" y="-620" width="210" height="240" as="geometry" />
        </mxCell>
        <mxCell id="jOW5zVb-UwvocSorwN48-232" value="" style="rounded=0;whiteSpace=wrap;html=1;fillColor=#E6D0DE;" vertex="1" parent="1">
          <mxGeometry x="-870" y="-210" width="830" height="390" as="geometry" />
        </mxCell>
        <mxCell id="jOW5zVb-UwvocSorwN48-60" value="" style="group" vertex="1" connectable="0" parent="1">
          <mxGeometry x="-430" y="-90" width="160" height="250" as="geometry" />
        </mxCell>
        <mxCell id="jOW5zVb-UwvocSorwN48-61" value="" style="rounded=0;whiteSpace=wrap;html=1;" vertex="1" parent="jOW5zVb-UwvocSorwN48-60">
          <mxGeometry width="160" height="250" as="geometry" />
        </mxCell>
        <mxCell id="jOW5zVb-UwvocSorwN48-62" value="&lt;h2&gt;Goals&lt;/h2&gt;" style="rounded=0;whiteSpace=wrap;html=1;" vertex="1" parent="jOW5zVb-UwvocSorwN48-60">
          <mxGeometry x="20" y="50" width="120" height="30" as="geometry" />
        </mxCell>
        <mxCell id="jOW5zVb-UwvocSorwN48-63" value="&lt;h2&gt;Hints&lt;/h2&gt;" style="rounded=0;whiteSpace=wrap;html=1;" vertex="1" parent="jOW5zVb-UwvocSorwN48-60">
          <mxGeometry x="20" y="90" width="120" height="30" as="geometry" />
        </mxCell>
        <mxCell id="jOW5zVb-UwvocSorwN48-64" value="&lt;h2&gt;Entrances&lt;/h2&gt;" style="rounded=0;whiteSpace=wrap;html=1;" vertex="1" parent="jOW5zVb-UwvocSorwN48-60">
          <mxGeometry x="20" y="130" width="120" height="30" as="geometry" />
        </mxCell>
        <mxCell id="jOW5zVb-UwvocSorwN48-66" style="edgeStyle=orthogonalEdgeStyle;rounded=0;orthogonalLoop=1;jettySize=auto;html=1;exitX=0.5;exitY=1;exitDx=0;exitDy=0;" edge="1" parent="jOW5zVb-UwvocSorwN48-60" source="jOW5zVb-UwvocSorwN48-61" target="jOW5zVb-UwvocSorwN48-61">
          <mxGeometry relative="1" as="geometry" />
        </mxCell>
        <mxCell id="jOW5zVb-UwvocSorwN48-162" value="&lt;h1&gt;Filler&lt;/h1&gt;" style="text;html=1;strokeColor=none;fillColor=none;align=center;verticalAlign=middle;whiteSpace=wrap;rounded=0;" vertex="1" parent="jOW5zVb-UwvocSorwN48-60">
          <mxGeometry x="50" y="10" width="60" height="30" as="geometry" />
        </mxCell>
        <mxCell id="jOW5zVb-UwvocSorwN48-229" value="&lt;h2&gt;Foolish&lt;/h2&gt;" style="rounded=0;whiteSpace=wrap;html=1;" vertex="1" parent="jOW5zVb-UwvocSorwN48-60">
          <mxGeometry x="20" y="170" width="120" height="30" as="geometry" />
        </mxCell>
        <mxCell id="jOW5zVb-UwvocSorwN48-235" value="&lt;h2&gt;Junk&lt;/h2&gt;" style="rounded=0;whiteSpace=wrap;html=1;" vertex="1" parent="jOW5zVb-UwvocSorwN48-60">
          <mxGeometry x="20" y="210" width="120" height="30" as="geometry" />
        </mxCell>
        <mxCell id="jOW5zVb-UwvocSorwN48-163" value="" style="group" vertex="1" connectable="0" parent="1">
          <mxGeometry x="-610" y="-90" width="160" height="250" as="geometry" />
        </mxCell>
        <mxCell id="jOW5zVb-UwvocSorwN48-48" value="" style="rounded=0;whiteSpace=wrap;html=1;container=0;" vertex="1" parent="jOW5zVb-UwvocSorwN48-163">
          <mxGeometry width="160" height="250" as="geometry" />
        </mxCell>
        <mxCell id="jOW5zVb-UwvocSorwN48-49" value="&lt;h2&gt;Win Cond&lt;br&gt;&lt;/h2&gt;" style="rounded=0;whiteSpace=wrap;html=1;container=0;" vertex="1" parent="jOW5zVb-UwvocSorwN48-163">
          <mxGeometry x="20" y="50" width="120" height="30" as="geometry" />
        </mxCell>
        <mxCell id="jOW5zVb-UwvocSorwN48-50" value="&lt;h2&gt;Goals&lt;/h2&gt;" style="rounded=0;whiteSpace=wrap;html=1;container=0;" vertex="1" parent="jOW5zVb-UwvocSorwN48-163">
          <mxGeometry x="20" y="90" width="120" height="30" as="geometry" />
        </mxCell>
        <mxCell id="jOW5zVb-UwvocSorwN48-51" value="&lt;h2&gt;Hints&lt;/h2&gt;" style="rounded=0;whiteSpace=wrap;html=1;container=0;" vertex="1" parent="jOW5zVb-UwvocSorwN48-163">
          <mxGeometry x="20" y="130" width="120" height="30" as="geometry" />
        </mxCell>
        <mxCell id="jOW5zVb-UwvocSorwN48-52" value="&lt;h1&gt;Solver&lt;/h1&gt;" style="text;html=1;strokeColor=none;fillColor=none;align=center;verticalAlign=middle;whiteSpace=wrap;rounded=0;container=0;" vertex="1" parent="jOW5zVb-UwvocSorwN48-163">
          <mxGeometry x="50" y="10" width="60" height="30" as="geometry" />
        </mxCell>
        <mxCell id="jOW5zVb-UwvocSorwN48-140" value="&lt;h2&gt;Entrances&lt;br&gt;&lt;/h2&gt;" style="rounded=0;whiteSpace=wrap;html=1;container=0;" vertex="1" parent="jOW5zVb-UwvocSorwN48-163">
          <mxGeometry x="20" y="170" width="120" height="30" as="geometry" />
        </mxCell>
        <mxCell id="jOW5zVb-UwvocSorwN48-228" value="&lt;h2&gt;Spoiler Log&lt;br&gt;&lt;/h2&gt;" style="rounded=0;whiteSpace=wrap;html=1;container=0;" vertex="1" parent="jOW5zVb-UwvocSorwN48-163">
          <mxGeometry x="20" y="210" width="120" height="30" as="geometry" />
        </mxCell>
        <mxCell id="jOW5zVb-UwvocSorwN48-234" value="&lt;h1&gt;Logic&lt;br&gt;&lt;/h1&gt;&lt;div&gt;Used by applications to manipulate the entity graph. &lt;br&gt;&lt;/div&gt;" style="text;html=1;strokeColor=none;fillColor=none;spacing=5;spacingTop=-20;whiteSpace=wrap;overflow=hidden;rounded=0;" vertex="1" parent="1">
          <mxGeometry x="-240" y="-70" width="180" height="150" as="geometry" />
        </mxCell>
        <mxCell id="jOW5zVb-UwvocSorwN48-427" value="" style="group" vertex="1" connectable="0" parent="1">
          <mxGeometry x="-260" y="-280" width="240" height="190" as="geometry" />
        </mxCell>
        <mxCell id="jOW5zVb-UwvocSorwN48-417" value="" style="rounded=0;whiteSpace=wrap;html=1;container=0;" vertex="1" parent="jOW5zVb-UwvocSorwN48-427">
          <mxGeometry width="240" height="190" as="geometry" />
        </mxCell>
        <mxCell id="jOW5zVb-UwvocSorwN48-418" value="&lt;h2&gt;Components&lt;/h2&gt;" style="rounded=0;whiteSpace=wrap;html=1;container=0;" vertex="1" parent="jOW5zVb-UwvocSorwN48-427">
          <mxGeometry x="31" y="40.451181818181794" width="180" height="37.00336363636364" as="geometry" />
        </mxCell>
        <mxCell id="jOW5zVb-UwvocSorwN48-419" value="&lt;h1&gt;Entity Graph&lt;br&gt;&lt;/h1&gt;" style="text;html=1;strokeColor=none;fillColor=none;align=center;verticalAlign=middle;whiteSpace=wrap;rounded=0;container=0;" vertex="1" parent="jOW5zVb-UwvocSorwN48-427">
          <mxGeometry x="20" width="200" height="50.45" as="geometry" />
        </mxCell>
        <mxCell id="jOW5zVb-UwvocSorwN48-420" style="edgeStyle=orthogonalEdgeStyle;rounded=0;orthogonalLoop=1;jettySize=auto;html=1;exitX=0.5;exitY=1;exitDx=0;exitDy=0;" edge="1" parent="jOW5zVb-UwvocSorwN48-427">
          <mxGeometry relative="1" as="geometry">
            <mxPoint x="-90" y="100" as="sourcePoint" />
            <mxPoint x="-90" y="100" as="targetPoint" />
          </mxGeometry>
        </mxCell>
        <mxCell id="jOW5zVb-UwvocSorwN48-421" value="&lt;h2&gt;Entities&lt;/h2&gt;" style="rounded=0;whiteSpace=wrap;html=1;container=0;" vertex="1" parent="jOW5zVb-UwvocSorwN48-427">
          <mxGeometry x="30" y="85.90545454545457" width="180" height="37.00336363636364" as="geometry" />
        </mxCell>
        <mxCell id="jOW5zVb-UwvocSorwN48-426" value="&lt;h2&gt;World Graph&lt;/h2&gt;" style="rounded=0;whiteSpace=wrap;html=1;container=0;" vertex="1" parent="jOW5zVb-UwvocSorwN48-427">
          <mxGeometry x="30" y="129.99545454545458" width="180" height="37.00336363636364" as="geometry" />
        </mxCell>
        <mxCell id="jOW5zVb-UwvocSorwN48-135" value="" style="group" vertex="1" connectable="0" parent="1">
          <mxGeometry x="-860" y="-200" width="240" height="360" as="geometry" />
        </mxCell>
        <mxCell id="jOW5zVb-UwvocSorwN48-81" value="" style="rounded=0;whiteSpace=wrap;html=1;container=0;" vertex="1" parent="jOW5zVb-UwvocSorwN48-135">
          <mxGeometry width="240" height="360" as="geometry" />
        </mxCell>
        <mxCell id="jOW5zVb-UwvocSorwN48-82" value="&lt;h2&gt;Win Condition&lt;/h2&gt;" style="rounded=0;whiteSpace=wrap;html=1;container=0;" vertex="1" parent="jOW5zVb-UwvocSorwN48-135">
          <mxGeometry x="30" y="40.451181818181794" width="180" height="37.00336363636364" as="geometry" />
        </mxCell>
        <mxCell id="jOW5zVb-UwvocSorwN48-85" value="&lt;h1&gt;Seed&lt;/h1&gt;" style="text;html=1;strokeColor=none;fillColor=none;align=center;verticalAlign=middle;whiteSpace=wrap;rounded=0;container=0;" vertex="1" parent="jOW5zVb-UwvocSorwN48-135">
          <mxGeometry x="75" y="2.842170943040401e-14" width="90" height="50.45454545454545" as="geometry" />
        </mxCell>
        <mxCell id="jOW5zVb-UwvocSorwN48-86" style="edgeStyle=orthogonalEdgeStyle;rounded=0;orthogonalLoop=1;jettySize=auto;html=1;exitX=0.5;exitY=1;exitDx=0;exitDy=0;" edge="1" parent="jOW5zVb-UwvocSorwN48-135" source="jOW5zVb-UwvocSorwN48-81" target="jOW5zVb-UwvocSorwN48-81">
          <mxGeometry relative="1" as="geometry" />
        </mxCell>
        <mxCell id="jOW5zVb-UwvocSorwN48-94" value="&lt;h2&gt;Item Pool&lt;br&gt;&lt;/h2&gt;" style="rounded=0;whiteSpace=wrap;html=1;container=0;" vertex="1" parent="jOW5zVb-UwvocSorwN48-135">
          <mxGeometry x="30" y="85.90545454545457" width="180" height="37.00336363636364" as="geometry" />
        </mxCell>
        <mxCell id="jOW5zVb-UwvocSorwN48-95" value="&lt;h2&gt;Shufflable&lt;br&gt; Locations&lt;br&gt;&lt;/h2&gt;" style="rounded=0;whiteSpace=wrap;html=1;container=0;" vertex="1" parent="jOW5zVb-UwvocSorwN48-135">
          <mxGeometry x="30" y="190.0045454545455" width="180" height="50.45454545454545" as="geometry" />
        </mxCell>
        <mxCell id="jOW5zVb-UwvocSorwN48-97" value="&lt;h2&gt;Preplaced&lt;br&gt; Locations&lt;br&gt;&lt;/h2&gt;" style="rounded=0;whiteSpace=wrap;html=1;container=0;" vertex="1" parent="jOW5zVb-UwvocSorwN48-135">
          <mxGeometry x="30" y="247.36" width="180" height="50.45454545454545" as="geometry" />
        </mxCell>
        <mxCell id="jOW5zVb-UwvocSorwN48-99" value="&lt;h2&gt;Shufflable&lt;br&gt;Items&lt;br&gt;&lt;/h2&gt;" style="rounded=0;whiteSpace=wrap;html=1;container=0;" vertex="1" parent="jOW5zVb-UwvocSorwN48-135">
          <mxGeometry x="30" y="131.3145454545455" width="180" height="50.45454545454545" as="geometry" />
        </mxCell>
        <mxCell id="jOW5zVb-UwvocSorwN48-102" value="&lt;h2&gt;Enabled Tricks&lt;br&gt;&lt;/h2&gt;" style="rounded=0;whiteSpace=wrap;html=1;container=0;" vertex="1" parent="jOW5zVb-UwvocSorwN48-135">
          <mxGeometry x="30" y="307.9054545454546" width="180" height="37.00336363636364" as="geometry" />
        </mxCell>
        <mxCell id="jOW5zVb-UwvocSorwN48-53" style="edgeStyle=orthogonalEdgeStyle;rounded=0;orthogonalLoop=1;jettySize=auto;html=1;exitX=0.5;exitY=1;exitDx=0;exitDy=0;" edge="1" parent="1">
          <mxGeometry relative="1" as="geometry">
            <mxPoint x="-680" y="200" as="sourcePoint" />
            <mxPoint x="-680" y="200" as="targetPoint" />
          </mxGeometry>
        </mxCell>
        <mxCell id="jOW5zVb-UwvocSorwN48-448" value="" style="endArrow=classic;html=1;rounded=0;exitX=0.25;exitY=0;exitDx=0;exitDy=0;entryX=1;entryY=0.208;entryDx=0;entryDy=0;entryPerimeter=0;" edge="1" parent="1" source="jOW5zVb-UwvocSorwN48-48" target="jOW5zVb-UwvocSorwN48-81">
          <mxGeometry width="50" height="50" relative="1" as="geometry">
            <mxPoint x="-540" y="-100" as="sourcePoint" />
            <mxPoint x="-490" y="-150" as="targetPoint" />
          </mxGeometry>
        </mxCell>
        <mxCell id="jOW5zVb-UwvocSorwN48-449" value="" style="endArrow=classic;html=1;rounded=0;exitX=0.25;exitY=0;exitDx=0;exitDy=0;entryX=1.008;entryY=0.175;entryDx=0;entryDy=0;entryPerimeter=0;" edge="1" parent="1" source="jOW5zVb-UwvocSorwN48-61" target="jOW5zVb-UwvocSorwN48-81">
          <mxGeometry width="50" height="50" relative="1" as="geometry">
            <mxPoint x="-540" y="-100" as="sourcePoint" />
            <mxPoint x="-490" y="-150" as="targetPoint" />
          </mxGeometry>
        </mxCell>
        <mxCell id="jOW5zVb-UwvocSorwN48-269" value="" style="rounded=0;whiteSpace=wrap;html=1;fillColor=#F8CECC;container=0;" vertex="1" parent="1">
          <mxGeometry x="-540" y="230" width="570" height="420" as="geometry" />
        </mxCell>
        <mxCell id="jOW5zVb-UwvocSorwN48-277" value="&lt;h2&gt;Query Compiler&lt;/h2&gt;" style="rounded=0;whiteSpace=wrap;html=1;container=0;" vertex="1" parent="1">
          <mxGeometry x="-190" y="250" width="120" height="50" as="geometry" />
        </mxCell>
        <mxCell id="jOW5zVb-UwvocSorwN48-271" value="&lt;h1&gt;Storage Tier&lt;br&gt;&lt;/h1&gt;&lt;div&gt;&lt;font style=&quot;font-size: 14px;&quot;&gt;Offloads storage management from the application tier. Data is stored in the most convenient format for how the application intends to use it.&lt;/font&gt;&lt;br&gt;&lt;/div&gt;" style="text;html=1;strokeColor=none;fillColor=none;spacing=5;spacingTop=-20;whiteSpace=wrap;overflow=hidden;rounded=0;container=0;" vertex="1" parent="1">
          <mxGeometry x="-170" y="500" width="200" height="140" as="geometry" />
        </mxCell>
        <mxCell id="jOW5zVb-UwvocSorwN48-407" value="" style="endArrow=classic;html=1;rounded=0;entryX=1;entryY=0.5;entryDx=0;entryDy=0;exitX=0;exitY=0.5;exitDx=0;exitDy=0;" edge="1" parent="1" source="jOW5zVb-UwvocSorwN48-277" target="jOW5zVb-UwvocSorwN48-279">
          <mxGeometry width="50" height="50" relative="1" as="geometry">
            <mxPoint x="300" y="560" as="sourcePoint" />
            <mxPoint x="350" y="510" as="targetPoint" />
          </mxGeometry>
        </mxCell>
        <mxCell id="jOW5zVb-UwvocSorwN48-446" value="" style="endArrow=classic;html=1;rounded=0;entryX=1;entryY=0.5;entryDx=0;entryDy=0;exitX=0;exitY=0.5;exitDx=0;exitDy=0;" edge="1" parent="1" source="jOW5zVb-UwvocSorwN48-3" target="jOW5zVb-UwvocSorwN48-277">
          <mxGeometry width="50" height="50" relative="1" as="geometry">
            <mxPoint y="265" as="sourcePoint" />
            <mxPoint x="-30" y="110" as="targetPoint" />
          </mxGeometry>
        </mxCell>
        <mxCell id="jOW5zVb-UwvocSorwN48-3" value="&lt;h1&gt;Query &lt;br&gt;Front End&lt;br&gt;&lt;/h1&gt;" style="rounded=0;whiteSpace=wrap;html=1;container=0;" vertex="1" parent="1">
          <mxGeometry y="200" width="140" height="90" as="geometry" />
        </mxCell>
        <mxCell id="jOW5zVb-UwvocSorwN48-20" value="&lt;h2&gt;Storage Medium&lt;/h2&gt;" style="shape=datastore;whiteSpace=wrap;html=1;container=0;" vertex="1" parent="1">
          <mxGeometry x="-515" y="240" width="120" height="80" as="geometry" />
        </mxCell>
        <mxCell id="jOW5zVb-UwvocSorwN48-258" value="" style="endArrow=classic;html=1;rounded=0;entryX=0.5;entryY=0;entryDx=0;entryDy=0;exitX=0.5;exitY=1;exitDx=0;exitDy=0;" edge="1" parent="1" source="jOW5zVb-UwvocSorwN48-20" target="jOW5zVb-UwvocSorwN48-174">
          <mxGeometry width="50" height="50" relative="1" as="geometry">
            <mxPoint x="-440" y="550" as="sourcePoint" />
            <mxPoint x="-390" y="500" as="targetPoint" />
          </mxGeometry>
        </mxCell>
        <mxCell id="jOW5zVb-UwvocSorwN48-279" value="&lt;h2&gt;Query VM&lt;/h2&gt;" style="rounded=0;whiteSpace=wrap;html=1;container=0;" vertex="1" parent="1">
          <mxGeometry x="-340" y="250" width="120" height="50" as="geometry" />
        </mxCell>
        <mxCell id="jOW5zVb-UwvocSorwN48-456" value="" style="endArrow=classic;html=1;rounded=0;exitX=0.725;exitY=0.988;exitDx=0;exitDy=0;entryX=0.544;entryY=-0.012;entryDx=0;entryDy=0;entryPerimeter=0;exitPerimeter=0;" edge="1" parent="1" source="jOW5zVb-UwvocSorwN48-20" target="jOW5zVb-UwvocSorwN48-199">
          <mxGeometry width="50" height="50" relative="1" as="geometry">
            <mxPoint x="-80" y="580" as="sourcePoint" />
            <mxPoint x="-30" y="530" as="targetPoint" />
          </mxGeometry>
        </mxCell>
        <mxCell id="jOW5zVb-UwvocSorwN48-461" value="" style="group" vertex="1" connectable="0" parent="1">
          <mxGeometry x="-350" y="370" width="160" height="310" as="geometry" />
        </mxCell>
        <mxCell id="jOW5zVb-UwvocSorwN48-199" value="" style="rounded=0;whiteSpace=wrap;html=1;container=0;" vertex="1" parent="jOW5zVb-UwvocSorwN48-461">
          <mxGeometry width="160" height="250" as="geometry" />
        </mxCell>
        <mxCell id="jOW5zVb-UwvocSorwN48-200" value="&lt;h2&gt;Settings&lt;/h2&gt;" style="rounded=0;whiteSpace=wrap;html=1;container=0;" vertex="1" parent="jOW5zVb-UwvocSorwN48-461">
          <mxGeometry x="20" y="100.4511818181818" width="120" height="37.00336363636364" as="geometry" />
        </mxCell>
        <mxCell id="jOW5zVb-UwvocSorwN48-201" value="&lt;h1&gt;Document&lt;/h1&gt;" style="text;html=1;strokeColor=none;fillColor=none;align=center;verticalAlign=middle;whiteSpace=wrap;rounded=0;container=0;" vertex="1" parent="jOW5zVb-UwvocSorwN48-461">
          <mxGeometry x="50" y="1.1368683772161603e-13" width="60" height="50.45454545454545" as="geometry" />
        </mxCell>
        <mxCell id="jOW5zVb-UwvocSorwN48-202" style="edgeStyle=orthogonalEdgeStyle;rounded=0;orthogonalLoop=1;jettySize=auto;html=1;exitX=0.5;exitY=1;exitDx=0;exitDy=0;" edge="1" parent="jOW5zVb-UwvocSorwN48-461" source="jOW5zVb-UwvocSorwN48-199" target="jOW5zVb-UwvocSorwN48-199">
          <mxGeometry relative="1" as="geometry" />
        </mxCell>
        <mxCell id="jOW5zVb-UwvocSorwN48-211" value="&lt;h2&gt;Cache&lt;/h2&gt;" style="rounded=0;whiteSpace=wrap;html=1;container=0;" vertex="1" parent="jOW5zVb-UwvocSorwN48-461">
          <mxGeometry x="20" y="150.4511818181818" width="120" height="37.00336363636364" as="geometry" />
        </mxCell>
        <mxCell id="jOW5zVb-UwvocSorwN48-283" value="&lt;h2&gt;Indexes?&lt;/h2&gt;" style="rounded=0;whiteSpace=wrap;html=1;container=0;" vertex="1" parent="jOW5zVb-UwvocSorwN48-461">
          <mxGeometry x="20" y="200" width="120" height="37" as="geometry" />
        </mxCell>
        <mxCell id="jOW5zVb-UwvocSorwN48-452" value="&lt;h2&gt;Entities&lt;/h2&gt;" style="rounded=0;whiteSpace=wrap;html=1;container=0;" vertex="1" parent="jOW5zVb-UwvocSorwN48-461">
          <mxGeometry x="20" y="50.451181818181794" width="120" height="37.00336363636364" as="geometry" />
        </mxCell>
        <mxCell id="jOW5zVb-UwvocSorwN48-463" value="" style="endArrow=classic;html=1;rounded=0;entryX=0;entryY=0.75;entryDx=0;entryDy=0;exitX=0.75;exitY=0;exitDx=0;exitDy=0;" edge="1" parent="1" source="jOW5zVb-UwvocSorwN48-61" target="jOW5zVb-UwvocSorwN48-417">
          <mxGeometry width="50" height="50" relative="1" as="geometry">
            <mxPoint x="-80" y="80" as="sourcePoint" />
            <mxPoint x="-30" y="30" as="targetPoint" />
          </mxGeometry>
        </mxCell>
        <mxCell id="jOW5zVb-UwvocSorwN48-464" value="" style="endArrow=classic;html=1;rounded=0;exitX=0.75;exitY=0;exitDx=0;exitDy=0;entryX=-0.004;entryY=0.644;entryDx=0;entryDy=0;entryPerimeter=0;" edge="1" parent="1" source="jOW5zVb-UwvocSorwN48-48" target="jOW5zVb-UwvocSorwN48-417">
          <mxGeometry width="50" height="50" relative="1" as="geometry">
            <mxPoint x="-80" y="80" as="sourcePoint" />
            <mxPoint x="-30" y="30" as="targetPoint" />
          </mxGeometry>
        </mxCell>
        <mxCell id="jOW5zVb-UwvocSorwN48-472" value="" style="endArrow=classic;html=1;rounded=0;entryX=0.564;entryY=-0.011;entryDx=0;entryDy=0;entryPerimeter=0;exitX=0.636;exitY=0.997;exitDx=0;exitDy=0;exitPerimeter=0;" edge="1" parent="1" source="jOW5zVb-UwvocSorwN48-301" target="jOW5zVb-UwvocSorwN48-3">
          <mxGeometry width="50" height="50" relative="1" as="geometry">
            <mxPoint x="79" y="-340" as="sourcePoint" />
            <mxPoint x="250" y="-130" as="targetPoint" />
          </mxGeometry>
        </mxCell>
        <mxCell id="jOW5zVb-UwvocSorwN48-473" value="" style="endArrow=classic;html=1;rounded=0;entryX=0.546;entryY=-0.026;entryDx=0;entryDy=0;entryPerimeter=0;exitX=0.25;exitY=1;exitDx=0;exitDy=0;" edge="1" parent="1" source="jOW5zVb-UwvocSorwN48-301" target="jOW5zVb-UwvocSorwN48-417">
          <mxGeometry width="50" height="50" relative="1" as="geometry">
            <mxPoint x="200" y="-80" as="sourcePoint" />
            <mxPoint x="250" y="-130" as="targetPoint" />
          </mxGeometry>
        </mxCell>
        <mxCell id="jOW5zVb-UwvocSorwN48-475" value="" style="endArrow=classic;html=1;rounded=0;entryX=0.013;entryY=0.106;entryDx=0;entryDy=0;entryPerimeter=0;exitX=1;exitY=0.888;exitDx=0;exitDy=0;exitPerimeter=0;" edge="1" parent="1" source="jOW5zVb-UwvocSorwN48-20" target="jOW5zVb-UwvocSorwN48-168">
          <mxGeometry width="50" height="50" relative="1" as="geometry">
            <mxPoint x="-370" y="350" as="sourcePoint" />
            <mxPoint x="-200" y="350" as="targetPoint" />
          </mxGeometry>
        </mxCell>
        <mxCell id="jOW5zVb-UwvocSorwN48-301" value="&lt;h1&gt;&lt;br&gt;&lt;/h1&gt;" style="rounded=0;whiteSpace=wrap;html=1;container=0;" vertex="1" parent="1">
          <mxGeometry x="-60" y="-660" width="220" height="310" as="geometry" />
        </mxCell>
        <mxCell id="jOW5zVb-UwvocSorwN48-468" value="&lt;h1&gt;Infrastructure&lt;/h1&gt;" style="text;html=1;strokeColor=none;fillColor=none;align=center;verticalAlign=middle;whiteSpace=wrap;rounded=0;container=0;" vertex="1" parent="1">
          <mxGeometry x="-40" y="-650" width="180" height="30" as="geometry" />
        </mxCell>
        <mxCell id="jOW5zVb-UwvocSorwN48-218" value="&lt;h2&gt;Logic Rewriter&lt;br&gt;&lt;/h2&gt;" style="rounded=0;whiteSpace=wrap;html=1;container=0;" vertex="1" parent="1">
          <mxGeometry x="-40" y="-610" width="180" height="30" as="geometry" />
        </mxCell>
        <mxCell id="jOW5zVb-UwvocSorwN48-219" value="&lt;h2&gt;Settings Finalizers&lt;br&gt;&lt;/h2&gt;" style="rounded=0;whiteSpace=wrap;html=1;container=0;" vertex="1" parent="1">
          <mxGeometry x="-40" y="-530" width="180" height="30" as="geometry" />
        </mxCell>
        <mxCell id="jOW5zVb-UwvocSorwN48-220" value="&lt;h2&gt;Macro Resolvers&lt;br&gt;&lt;/h2&gt;" style="rounded=0;whiteSpace=wrap;html=1;container=0;" vertex="1" parent="1">
          <mxGeometry x="-40" y="-490" width="180" height="30" as="geometry" />
        </mxCell>
        <mxCell id="jOW5zVb-UwvocSorwN48-318" value="&lt;h2&gt;Application Builder&lt;/h2&gt;" style="rounded=0;whiteSpace=wrap;html=1;container=0;" vertex="1" parent="1">
          <mxGeometry x="-40" y="-570" width="180" height="30" as="geometry" />
        </mxCell>
        <mxCell id="jOW5zVb-UwvocSorwN48-477" value="&lt;h2&gt;World Construction&lt;br&gt;&lt;/h2&gt;" style="rounded=0;whiteSpace=wrap;html=1;container=0;" vertex="1" parent="1">
          <mxGeometry x="-40" y="-450" width="180" height="30" as="geometry" />
        </mxCell>
        <mxCell id="jOW5zVb-UwvocSorwN48-478" value="&lt;h2&gt;Default Implementations&lt;/h2&gt;" style="rounded=0;whiteSpace=wrap;html=1;container=0;" vertex="1" parent="1">
          <mxGeometry x="-40" y="-410" width="180" height="50" as="geometry" />
        </mxCell>
        <mxCell id="jOW5zVb-UwvocSorwN48-479" value="" style="endArrow=classic;html=1;rounded=0;entryX=1.025;entryY=0.17;entryDx=0;entryDy=0;entryPerimeter=0;exitX=0;exitY=0.75;exitDx=0;exitDy=0;" edge="1" parent="1" source="jOW5zVb-UwvocSorwN48-218" target="jOW5zVb-UwvocSorwN48-36">
          <mxGeometry width="50" height="50" relative="1" as="geometry">
            <mxPoint x="-60" y="-612" as="sourcePoint" />
            <mxPoint x="-315" y="-830" as="targetPoint" />
          </mxGeometry>
        </mxCell>
        <mxCell id="jOW5zVb-UwvocSorwN48-480" value="" style="group" vertex="1" connectable="0" parent="1">
          <mxGeometry x="-530" y="360" width="160" height="260" as="geometry" />
        </mxCell>
        <mxCell id="jOW5zVb-UwvocSorwN48-174" value="" style="rounded=0;whiteSpace=wrap;html=1;container=0;" vertex="1" parent="jOW5zVb-UwvocSorwN48-480">
          <mxGeometry width="160" height="260" as="geometry" />
        </mxCell>
        <mxCell id="jOW5zVb-UwvocSorwN48-181" value="&lt;h1&gt;Graph&lt;/h1&gt;" style="text;html=1;strokeColor=none;fillColor=none;align=center;verticalAlign=middle;whiteSpace=wrap;rounded=0;container=0;" vertex="1" parent="jOW5zVb-UwvocSorwN48-480">
          <mxGeometry x="50" y="10" width="60" height="30" as="geometry" />
        </mxCell>
        <mxCell id="jOW5zVb-UwvocSorwN48-176" value="&lt;h2&gt;Locations&lt;/h2&gt;" style="rounded=0;whiteSpace=wrap;html=1;container=0;" vertex="1" parent="jOW5zVb-UwvocSorwN48-480">
          <mxGeometry x="15" y="85" width="130" height="30" as="geometry" />
        </mxCell>
        <mxCell id="jOW5zVb-UwvocSorwN48-177" value="&lt;h2&gt;Entrances&lt;/h2&gt;" style="rounded=0;whiteSpace=wrap;html=1;container=0;" vertex="1" parent="jOW5zVb-UwvocSorwN48-480">
          <mxGeometry x="15" y="125" width="130" height="30" as="geometry" />
        </mxCell>
        <mxCell id="jOW5zVb-UwvocSorwN48-178" value="&lt;h2&gt;Exits&lt;/h2&gt;" style="rounded=0;whiteSpace=wrap;html=1;container=0;" vertex="1" parent="jOW5zVb-UwvocSorwN48-480">
          <mxGeometry x="15" y="165" width="130" height="30" as="geometry" />
        </mxCell>
        <mxCell id="jOW5zVb-UwvocSorwN48-179" value="&lt;h2&gt;Hints&lt;br&gt;&lt;/h2&gt;" style="rounded=0;whiteSpace=wrap;html=1;container=0;" vertex="1" parent="jOW5zVb-UwvocSorwN48-480">
          <mxGeometry x="15" y="205" width="130" height="30" as="geometry" />
        </mxCell>
        <mxCell id="jOW5zVb-UwvocSorwN48-180" value="&lt;h2&gt;Regions&lt;/h2&gt;" style="rounded=0;whiteSpace=wrap;html=1;container=0;" vertex="1" parent="jOW5zVb-UwvocSorwN48-480">
          <mxGeometry x="15" y="50" width="130" height="30" as="geometry" />
        </mxCell>
        <mxCell id="jOW5zVb-UwvocSorwN48-481" value="" style="endArrow=classic;html=1;rounded=0;entryX=1;entryY=0.5;entryDx=0;entryDy=0;" edge="1" parent="1" target="jOW5zVb-UwvocSorwN48-20">
          <mxGeometry width="50" height="50" relative="1" as="geometry">
            <mxPoint x="-330" y="280" as="sourcePoint" />
            <mxPoint x="-630" y="370" as="targetPoint" />
          </mxGeometry>
        </mxCell>
        <mxCell id="jOW5zVb-UwvocSorwN48-482" value="" style="group" vertex="1" connectable="0" parent="1">
          <mxGeometry x="-170" y="320" width="160" height="170" as="geometry" />
        </mxCell>
        <mxCell id="jOW5zVb-UwvocSorwN48-168" value="" style="rounded=0;whiteSpace=wrap;html=1;container=0;" vertex="1" parent="jOW5zVb-UwvocSorwN48-482">
          <mxGeometry width="160" height="170" as="geometry" />
        </mxCell>
        <mxCell id="jOW5zVb-UwvocSorwN48-169" value="&lt;h1&gt;Columnar&lt;/h1&gt;" style="text;html=1;strokeColor=none;fillColor=none;align=center;verticalAlign=middle;whiteSpace=wrap;rounded=0;container=0;" vertex="1" parent="jOW5zVb-UwvocSorwN48-482">
          <mxGeometry x="50" y="15" width="60" height="30" as="geometry" />
        </mxCell>
        <mxCell id="jOW5zVb-UwvocSorwN48-7" value="&lt;h2&gt;Component 1&lt;br&gt;&lt;/h2&gt;" style="rounded=0;whiteSpace=wrap;html=1;container=0;" vertex="1" parent="jOW5zVb-UwvocSorwN48-482">
          <mxGeometry x="15" y="45" width="130" height="30" as="geometry" />
        </mxCell>
        <mxCell id="jOW5zVb-UwvocSorwN48-8" value="&lt;h2&gt;Component 2&lt;br&gt;&lt;/h2&gt;" style="rounded=0;whiteSpace=wrap;html=1;container=0;" vertex="1" parent="jOW5zVb-UwvocSorwN48-482">
          <mxGeometry x="15" y="85" width="130" height="30" as="geometry" />
        </mxCell>
        <mxCell id="jOW5zVb-UwvocSorwN48-9" value="&lt;h2&gt;Component N&lt;br&gt;&lt;/h2&gt;" style="rounded=0;whiteSpace=wrap;html=1;container=0;" vertex="1" parent="jOW5zVb-UwvocSorwN48-482">
          <mxGeometry x="15" y="125" width="130" height="30" as="geometry" />
        </mxCell>
      </root>
    </mxGraphModel>
  </diagram>
</mxfile>
